<?xml version="1.0" encoding="UTF-8" standalone="no"?>
<!-- Created with Inkscape (http://www.inkscape.org/) -->

<svg
   xmlns:dc="http://purl.org/dc/elements/1.1/"
   xmlns:cc="http://creativecommons.org/ns#"
   xmlns:rdf="http://www.w3.org/1999/02/22-rdf-syntax-ns#"
   xmlns:svg="http://www.w3.org/2000/svg"
   xmlns="http://www.w3.org/2000/svg"
   xmlns:sodipodi="http://sodipodi.sourceforge.net/DTD/sodipodi-0.dtd"
   xmlns:inkscape="http://www.inkscape.org/namespaces/inkscape"
   id="svg2"
   version="1.1"
   inkscape:version="0.91 r13725"
   xml:space="preserve"
   width="765"
   height="875"
   viewBox="0 0 765 875"
   sodipodi:docname="indieprize-logo-square-green.svg"><metadata
     id="metadata8"><rdf:RDF><cc:Work
         rdf:about=""><dc:format>image/svg+xml</dc:format><dc:type
           rdf:resource="http://purl.org/dc/dcmitype/StillImage" /><dc:title></dc:title></cc:Work></rdf:RDF></metadata><defs
     id="defs6"><clipPath
       clipPathUnits="userSpaceOnUse"
       id="clipPath16"><path
         d="M 0,700 612,700 612,0 0,0 0,700 Z"
         id="path18"
         inkscape:connector-curvature="0" /></clipPath></defs><sodipodi:namedview
     pagecolor="#ffffff"
     bordercolor="#666666"
     borderopacity="1"
     objecttolerance="10"
     gridtolerance="10"
     guidetolerance="10"
     inkscape:pageopacity="0"
     inkscape:pageshadow="2"
     inkscape:window-width="1280"
     inkscape:window-height="657"
     id="namedview4"
     showgrid="false"
     inkscape:zoom="0.26971429"
     inkscape:cx="382.5"
     inkscape:cy="437.5"
     inkscape:window-x="-8"
     inkscape:window-y="-8"
     inkscape:window-maximized="1"
     inkscape:current-layer="g10" /><g
     id="g10"
     inkscape:groupmode="layer"
     inkscape:label="indieprize-logo-square-green"
     transform="matrix(1.25,0,0,-1.25,0,875)"><g
       id="g12"><g
         id="g14"
         clip-path="url(#clipPath16)"><g
           id="g20"
           transform="translate(495.248,401.2319)"><path
             d="m 0,0 c 0,-106.117 -86.024,-192.14 -192.142,-192.14 -106.116,0 -192.142,86.023 -192.142,192.14 0,106.117 86.026,192.143 192.142,192.143 C -86.024,192.143 0,106.117 0,0"
             style="fill:#bcd864;fill-opacity:1;fill-rule:nonzero;stroke:none"
             id="path22"
             inkscape:connector-curvature="0" /></g><g
           id="g24"
           transform="translate(495.248,401.2319)"><path
             d="M 0,0 C 0,87.274 -58.193,160.945 -137.89,184.362 -69.598,65.075 -195.492,14.119 -195.492,14.119 c 0,0 67.944,-46.963 31.308,-126.227 22.981,-25.31 8.326,-73.604 -6.498,-78.832 C -74.667,-180.27 0,-98.862 0,0"
             style="fill:#729e4c;fill-opacity:1;fill-rule:nonzero;stroke:none"
             id="path26"
             inkscape:connector-curvature="0" /></g><g
           id="g28"
           transform="translate(303.4004,397.7622)"><path
             d="m 0,0 c -54.276,0 -104.234,18.484 -143.932,49.495 l 0,-148.875 287.867,0 0,148.875 C 104.234,18.484 54.277,0 0,0"
             style="fill:#f1f2f2;fill-opacity:1;fill-rule:nonzero;stroke:none"
             id="path30"
             inkscape:connector-curvature="0" /></g><g
           id="g32"
           transform="translate(196.9043,377.3643)"><path
             d="m 0,0 c -7.332,0 -13.275,-8.446 -13.275,-18.865 0,-10.418 5.943,-18.864 13.275,-18.864 7.333,0 13.276,8.446 13.276,18.864 C 13.276,-8.446 7.333,0 0,0"
             style="fill:#393938;fill-opacity:1;fill-rule:nonzero;stroke:none"
             id="path34"
             inkscape:connector-curvature="0" /></g><g
           id="g36"
           transform="translate(314.7422,582.5381)"><path
             d="m 0,0 96.92,47.625 c 0,0 16.15,-23.146 -23.316,-56.617 0,0 -27.975,-19.484 -29.474,-12.989 C 41.219,-9.355 0,0 0,0"
             style="fill:#bcd864;fill-opacity:1;fill-rule:nonzero;stroke:none"
             id="path38"
             inkscape:connector-curvature="0" /></g><g
           id="g40"
           transform="translate(351.0508,652.146)"><path
             d="m 0,0 -61.617,-64.113 c 0,0 14.994,-7.825 45.631,-1.163 C 14.655,-58.614 13.324,-7.993 0,0"
             style="fill:#bcd864;fill-opacity:1;fill-rule:nonzero;stroke:none"
             id="path42"
             inkscape:connector-curvature="0" /></g><g
           id="g44"
           transform="translate(352.0459,669.4629)"><path
             d="m 0,0 -68.607,-88.923 67.44,69.94 c 0,0 7.162,-32.639 -2.162,-53.62 l 57.614,24.645 c 0,0 5.331,-37.302 -70.27,-68.607 0,0 35.187,1.161 58.78,19.982 28.811,22.98 26.145,48.291 22.816,64.277 l -53.29,-24.645 c 0,0 4.329,38.301 -12.321,56.951"
             style="fill:#729e4c;fill-opacity:1;fill-rule:nonzero;stroke:none"
             id="path46"
             inkscape:connector-curvature="0" /></g><g
           id="g48"
           transform="translate(412.8027,377.3643)"><path
             d="m 0,0 c -7.334,0 -13.278,-8.446 -13.278,-18.865 0,-10.418 5.944,-18.864 13.278,-18.864 7.329,0 13.273,8.446 13.273,18.864 C 13.273,-8.446 7.329,0 0,0"
             style="fill:#393938;fill-opacity:1;fill-rule:nonzero;stroke:none"
             id="path50"
             inkscape:connector-curvature="0" /></g><text
           transform="matrix(0.67427021,0,0,-1,19.522,47.1768)"
           style="font-variant:normal;font-weight:900;font-stretch:condensed;font-size:201.18240356px;font-family:'Myriad Pro Black Cond';-inkscape-font-specification:MyriadPro-BlackCond;writing-mode:lr-tb;fill:#729e4c;fill-opacity:1;fill-rule:nonzero;stroke:none"
           id="text52"><tspan
             x="0 54.118065 162.3542 265.15842 319.27646 402.1636 434.35281 531.32269 631.31036 685.42847 765.90137"
             y="0"
             sodipodi:role="line"
             id="tspan54">INDIE PRIZE</tspan></text>
</g></g></g></svg>